{"title":"Rick Ross - I'm Not A Star [KingPinVideos]","uid":5891656,"size":66209407,"categoryP":"video","categoryS":"music_videos","magnet":"?xt=urn:btih:37814345f6bba670e0224b582fdfea3124a92959&amp;dn=Rick+Ross+-+I%5C%27m+Not+A+Star+%5BKingPinVideos%5D&amp;tr=udp%3A%2F%2Ftracker.openbittorrent.com%3A80&amp;tr=udp%3A%2F%2Fopen.demonii.com%3A1337&amp;tr=udp%3A%2F%2Ftracker.coppersurfer.tk%3A6969&amp;tr=udp%3A%2F%2Fexodus.desync.com%3A6969","seeders":1,"leechers":0,"uploader":"KingPinMan","files":5,"time":1287275691,"description":"[img]http://img832.imageshack.us/img832/9382/rickrossnotastar2.png[/img]\n\n[img]http://img829.imageshack.us/img829/6640/rickrossnotastar.png[/img]\n\n[code]General\nComplete name                    : Rick Ross - Im Not A Star [KingPinVideos].mpg\nFormat                           : MPEG-PS\nFile size                        : 63.1 MiB\nDuration                         : 3mn 5s\nOverall bit rate                 : 2 856 Kbps\nWriting library                  : encoded by TMPGEnc 4.0 XPress Version. 4.7.4.299\n\nVideo\nID                               : 224 (0xE0)\nFormat                           : MPEG Video\nFormat version                   : Version 1\nFormat settings, BVOP            : Yes\nFormat settings, Matrix          : Default\nDuration                         : 3mn 5s\nBit rate mode                    : Constant\nBit rate                         : 2 615 Kbps\nNominal bit rate                 : 2 700 Kbps\nWidth                            : 384 pixels\nHeight                           : 208 pixels\nDisplay aspect ratio             : 16:9\nFrame rate                       : 29.970 fps\nResolution                       : 8 bits\nScan type                        : Progressive\nBits/(Pixel*Frame)               : 1.092\nStream size                      : 57.8 MiB (92%)\nWriting library                  : TMPGEnc XPress 4.7.4.299\n\nAudio\nID                               : 192 (0xC0)\nFormat                           : MPEG Audio\nFormat version                   : Version 1\nFormat profile                   : Layer 2\nDuration                         : 3mn 5s\nBit rate mode                    : Constant\nBit rate                         : 128 Kbps\nChannel(s)                       : 2 channels\nSampling rate                    : 48.0 KHz\nStream size                      : 2.83 MiB (4%)[/code]\n","torrent":{"xt":"urn:btih:37814345f6bba670e0224b582fdfea3124a92959","amp;dn":"Rick+Ross+-+I%5C%27m+Not+A+Star+%5BKingPinVideos%5D","amp;tr":["udp%3A%2F%2Ftracker.openbittorrent.com%3A80","udp%3A%2F%2Fopen.demonii.com%3A1337","udp%3A%2F%2Ftracker.coppersurfer.tk%3A6969","udp%3A%2F%2Fexodus.desync.com%3A6969"],"infoHash":"37814345f6bba670e0224b582fdfea3124a92959","infoHashBuffer":{"type":"Buffer","data":[55,129,67,69,246,187,166,112,224,34,75,88,47,223,234,49,36,169,41,89]},"announce":[],"urlList":[]}}